<svg xmlns="http://www.w3.org/2000/svg" version="1.1" xmlns:xlink="http://www.w3.org/1999/xlink" xmlns:svgjs="http://svgjs.com/svgjs" width="1440" height="560" preserveAspectRatio="none" viewBox="0 0 1440 560"><g mask="url(&quot;#SvgjsMask1014&quot;)" fill="none"><rect width="1440" height="560" x="0" y="0" fill="#0e2a47"></rect><path d="M65.04 102.64L130 140.14L130 215.14L65.04 252.64L0.09 215.14L0.09 140.14zM0.09 440.14L65.04 477.64L65.04 552.64L0.09 590.14L-64.86 552.64L-64.86 477.64zM194.95 102.64L259.9 140.14L259.9 215.14L194.95 252.64L130 215.14L130 140.14zM259.9 -9.86L324.86 27.64L324.86 102.64L259.9 140.14L194.95 102.64L194.95 27.64zM389.81 -9.86L454.77 27.64L454.77 102.64L389.81 140.14L324.86 102.64L324.86 27.64zM519.72 -9.86L584.67 27.64L584.67 102.64L519.72 140.14L454.77 102.64L454.77 27.64zM714.58 102.64L779.54 140.14L779.54 215.14L714.58 252.64L649.63 215.14L649.63 140.14zM714.58 327.64L779.54 365.14L779.54 440.14L714.58 477.64L649.63 440.14L649.63 365.14zM649.63 440.14L714.58 477.64L714.58 552.64L649.63 590.14L584.67 552.64L584.67 477.64zM714.58 552.64L779.54 590.14L779.54 665.14L714.58 702.64L649.63 665.14L649.63 590.14zM779.53 440.14L844.49 477.64L844.49 552.64L779.53 590.14L714.58 552.64L714.58 477.64zM974.4 102.64L1039.35 140.14L1039.35 215.14L974.4 252.64L909.44 215.14L909.44 140.14zM909.44 215.14L974.4 252.64L974.4 327.64L909.44 365.14L844.49 327.64L844.49 252.64zM1169.26 -9.86L1234.21 27.64L1234.21 102.64L1169.26 140.14L1104.3 102.64L1104.3 27.64zM1299.16 440.14L1364.12 477.64L1364.12 552.64L1299.16 590.14L1234.21 552.64L1234.21 477.64zM1494.03 327.64L1558.98 365.14L1558.98 440.14L1494.03 477.64L1429.07 440.14L1429.07 365.14zM1429.07 440.14L1494.03 477.64L1494.03 552.64L1429.07 590.14L1364.12 552.64L1364.12 477.64z" stroke="#03305d" stroke-width="2"></path><path d="M57.54 102.64 a7.5 7.5 0 1 0 15 0 a7.5 7.5 0 1 0 -15 0zM122.5 140.14 a7.5 7.5 0 1 0 15 0 a7.5 7.5 0 1 0 -15 0zM122.5 215.14 a7.5 7.5 0 1 0 15 0 a7.5 7.5 0 1 0 -15 0zM57.54 252.64 a7.5 7.5 0 1 0 15 0 a7.5 7.5 0 1 0 -15 0zM-7.41 215.14 a7.5 7.5 0 1 0 15 0 a7.5 7.5 0 1 0 -15 0zM-7.41 140.14 a7.5 7.5 0 1 0 15 0 a7.5 7.5 0 1 0 -15 0zM-7.41 440.14 a7.5 7.5 0 1 0 15 0 a7.5 7.5 0 1 0 -15 0zM57.54 477.64 a7.5 7.5 0 1 0 15 0 a7.5 7.5 0 1 0 -15 0zM57.54 552.64 a7.5 7.5 0 1 0 15 0 a7.5 7.5 0 1 0 -15 0zM-7.41 590.14 a7.5 7.5 0 1 0 15 0 a7.5 7.5 0 1 0 -15 0zM-72.36 552.64 a7.5 7.5 0 1 0 15 0 a7.5 7.5 0 1 0 -15 0zM-72.36 477.64 a7.5 7.5 0 1 0 15 0 a7.5 7.5 0 1 0 -15 0zM187.45 102.64 a7.5 7.5 0 1 0 15 0 a7.5 7.5 0 1 0 -15 0zM252.4 140.14 a7.5 7.5 0 1 0 15 0 a7.5 7.5 0 1 0 -15 0zM252.4 215.14 a7.5 7.5 0 1 0 15 0 a7.5 7.5 0 1 0 -15 0zM187.45 252.64 a7.5 7.5 0 1 0 15 0 a7.5 7.5 0 1 0 -15 0zM252.4 -9.86 a7.5 7.5 0 1 0 15 0 a7.5 7.5 0 1 0 -15 0zM317.36 27.64 a7.5 7.5 0 1 0 15 0 a7.5 7.5 0 1 0 -15 0zM317.36 102.64 a7.5 7.5 0 1 0 15 0 a7.5 7.5 0 1 0 -15 0zM187.45 27.64 a7.5 7.5 0 1 0 15 0 a7.5 7.5 0 1 0 -15 0zM382.31 -9.86 a7.5 7.5 0 1 0 15 0 a7.5 7.5 0 1 0 -15 0zM447.27 27.64 a7.5 7.5 0 1 0 15 0 a7.5 7.5 0 1 0 -15 0zM447.27 102.64 a7.5 7.5 0 1 0 15 0 a7.5 7.5 0 1 0 -15 0zM382.31 140.14 a7.5 7.5 0 1 0 15 0 a7.5 7.5 0 1 0 -15 0zM512.22 -9.86 a7.5 7.5 0 1 0 15 0 a7.5 7.5 0 1 0 -15 0zM577.17 27.64 a7.5 7.5 0 1 0 15 0 a7.5 7.5 0 1 0 -15 0zM577.17 102.64 a7.5 7.5 0 1 0 15 0 a7.5 7.5 0 1 0 -15 0zM512.22 140.14 a7.5 7.5 0 1 0 15 0 a7.5 7.5 0 1 0 -15 0zM707.08 102.64 a7.5 7.5 0 1 0 15 0 a7.5 7.5 0 1 0 -15 0zM772.04 140.14 a7.5 7.5 0 1 0 15 0 a7.5 7.5 0 1 0 -15 0zM772.04 215.14 a7.5 7.5 0 1 0 15 0 a7.5 7.5 0 1 0 -15 0zM707.08 252.64 a7.5 7.5 0 1 0 15 0 a7.5 7.5 0 1 0 -15 0zM642.13 215.14 a7.5 7.5 0 1 0 15 0 a7.5 7.5 0 1 0 -15 0zM642.13 140.14 a7.5 7.5 0 1 0 15 0 a7.5 7.5 0 1 0 -15 0zM707.08 327.64 a7.5 7.5 0 1 0 15 0 a7.5 7.5 0 1 0 -15 0zM772.04 365.14 a7.5 7.5 0 1 0 15 0 a7.5 7.5 0 1 0 -15 0zM772.04 440.14 a7.5 7.5 0 1 0 15 0 a7.5 7.5 0 1 0 -15 0zM707.08 477.64 a7.5 7.5 0 1 0 15 0 a7.5 7.5 0 1 0 -15 0zM642.13 440.14 a7.5 7.5 0 1 0 15 0 a7.5 7.5 0 1 0 -15 0zM642.13 365.14 a7.5 7.5 0 1 0 15 0 a7.5 7.5 0 1 0 -15 0zM707.08 552.64 a7.5 7.5 0 1 0 15 0 a7.5 7.5 0 1 0 -15 0zM642.13 590.14 a7.5 7.5 0 1 0 15 0 a7.5 7.5 0 1 0 -15 0zM577.17 552.64 a7.5 7.5 0 1 0 15 0 a7.5 7.5 0 1 0 -15 0zM577.17 477.64 a7.5 7.5 0 1 0 15 0 a7.5 7.5 0 1 0 -15 0zM772.04 590.14 a7.5 7.5 0 1 0 15 0 a7.5 7.5 0 1 0 -15 0zM772.04 665.14 a7.5 7.5 0 1 0 15 0 a7.5 7.5 0 1 0 -15 0zM707.08 702.64 a7.5 7.5 0 1 0 15 0 a7.5 7.5 0 1 0 -15 0zM642.13 665.14 a7.5 7.5 0 1 0 15 0 a7.5 7.5 0 1 0 -15 0zM772.03 440.14 a7.5 7.5 0 1 0 15 0 a7.5 7.5 0 1 0 -15 0zM836.99 477.64 a7.5 7.5 0 1 0 15 0 a7.5 7.5 0 1 0 -15 0zM836.99 552.64 a7.5 7.5 0 1 0 15 0 a7.5 7.5 0 1 0 -15 0zM772.03 590.14 a7.5 7.5 0 1 0 15 0 a7.5 7.5 0 1 0 -15 0zM966.9 102.64 a7.5 7.5 0 1 0 15 0 a7.5 7.5 0 1 0 -15 0zM1031.85 140.14 a7.5 7.5 0 1 0 15 0 a7.5 7.5 0 1 0 -15 0zM1031.85 215.14 a7.5 7.5 0 1 0 15 0 a7.5 7.5 0 1 0 -15 0zM966.9 252.64 a7.5 7.5 0 1 0 15 0 a7.5 7.5 0 1 0 -15 0zM901.94 215.14 a7.5 7.5 0 1 0 15 0 a7.5 7.5 0 1 0 -15 0zM901.94 140.14 a7.5 7.5 0 1 0 15 0 a7.5 7.5 0 1 0 -15 0zM966.9 327.64 a7.5 7.5 0 1 0 15 0 a7.5 7.5 0 1 0 -15 0zM901.94 365.14 a7.5 7.5 0 1 0 15 0 a7.5 7.5 0 1 0 -15 0zM836.99 327.64 a7.5 7.5 0 1 0 15 0 a7.5 7.5 0 1 0 -15 0zM836.99 252.64 a7.5 7.5 0 1 0 15 0 a7.5 7.5 0 1 0 -15 0zM1161.76 -9.86 a7.5 7.5 0 1 0 15 0 a7.5 7.5 0 1 0 -15 0zM1226.71 27.64 a7.5 7.5 0 1 0 15 0 a7.5 7.5 0 1 0 -15 0zM1226.71 102.64 a7.5 7.5 0 1 0 15 0 a7.5 7.5 0 1 0 -15 0zM1161.76 140.14 a7.5 7.5 0 1 0 15 0 a7.5 7.5 0 1 0 -15 0zM1096.8 102.64 a7.5 7.5 0 1 0 15 0 a7.5 7.5 0 1 0 -15 0zM1096.8 27.64 a7.5 7.5 0 1 0 15 0 a7.5 7.5 0 1 0 -15 0zM1291.66 440.14 a7.5 7.5 0 1 0 15 0 a7.5 7.5 0 1 0 -15 0zM1356.62 477.64 a7.5 7.5 0 1 0 15 0 a7.5 7.5 0 1 0 -15 0zM1356.62 552.64 a7.5 7.5 0 1 0 15 0 a7.5 7.5 0 1 0 -15 0zM1291.66 590.14 a7.5 7.5 0 1 0 15 0 a7.5 7.5 0 1 0 -15 0zM1226.71 552.64 a7.5 7.5 0 1 0 15 0 a7.5 7.5 0 1 0 -15 0zM1226.71 477.64 a7.5 7.5 0 1 0 15 0 a7.5 7.5 0 1 0 -15 0zM1486.53 327.64 a7.5 7.5 0 1 0 15 0 a7.5 7.5 0 1 0 -15 0zM1551.48 365.14 a7.5 7.5 0 1 0 15 0 a7.5 7.5 0 1 0 -15 0zM1551.48 440.14 a7.5 7.5 0 1 0 15 0 a7.5 7.5 0 1 0 -15 0zM1486.53 477.64 a7.5 7.5 0 1 0 15 0 a7.5 7.5 0 1 0 -15 0zM1421.57 440.14 a7.5 7.5 0 1 0 15 0 a7.5 7.5 0 1 0 -15 0zM1421.57 365.14 a7.5 7.5 0 1 0 15 0 a7.5 7.5 0 1 0 -15 0zM1486.53 552.64 a7.5 7.5 0 1 0 15 0 a7.5 7.5 0 1 0 -15 0zM1421.57 590.14 a7.5 7.5 0 1 0 15 0 a7.5 7.5 0 1 0 -15 0z" fill="#03305d"></path><path d="M10.02 105.6L53.32 130.6L53.32 180.6L10.02 205.6L-33.28 180.6L-33.28 130.6zM10.02 255.6L53.32 280.6L53.32 330.6L10.02 355.6L-33.28 330.6L-33.28 280.6zM96.63 -44.4L139.93 -19.4L139.93 30.6L96.63 55.6L53.32 30.6L53.32 -19.4zM139.93 30.6L183.23 55.6L183.23 105.6L139.93 130.6L96.63 105.6L96.63 55.6zM96.63 405.6L139.93 430.6L139.93 480.6L96.63 505.6L53.32 480.6L53.32 430.6zM139.93 480.6L183.23 505.6L183.23 555.6L139.93 580.6L96.63 555.6L96.63 505.6zM226.53 30.6L269.83 55.6L269.83 105.6L226.53 130.6L183.23 105.6L183.23 55.6zM183.23 255.6L226.53 280.6L226.53 330.6L183.23 355.6L139.93 330.6L139.93 280.6zM226.53 480.6L269.83 505.6L269.83 555.6L226.53 580.6L183.23 555.6L183.23 505.6zM313.14 30.6L356.44 55.6L356.44 105.6L313.14 130.6L269.83 105.6L269.83 55.6zM269.83 105.6L313.14 130.6L313.14 180.6L269.83 205.6L226.53 180.6L226.53 130.6zM313.14 180.6L356.44 205.6L356.44 255.6L313.14 280.6L269.83 255.6L269.83 205.6zM269.83 255.6L313.14 280.6L313.14 330.6L269.83 355.6L226.53 330.6L226.53 280.6zM356.44 -44.4L399.74 -19.4L399.74 30.6L356.44 55.6L313.14 30.6L313.14 -19.4zM399.74 180.6L443.05 205.6L443.05 255.6L399.74 280.6L356.44 255.6L356.44 205.6zM486.35 30.6L529.65 55.6L529.65 105.6L486.35 130.6L443.05 105.6L443.05 55.6zM486.35 180.6L529.65 205.6L529.65 255.6L486.35 280.6L443.05 255.6L443.05 205.6zM486.35 480.6L529.65 505.6L529.65 555.6L486.35 580.6L443.05 555.6L443.05 505.6zM572.95 30.6L616.25 55.6L616.25 105.6L572.95 130.6L529.65 105.6L529.65 55.6zM572.95 180.6L616.25 205.6L616.25 255.6L572.95 280.6L529.65 255.6L529.65 205.6zM529.65 255.6L572.95 280.6L572.95 330.6L529.65 355.6L486.35 330.6L486.35 280.6zM659.56 30.6L702.86 55.6L702.86 105.6L659.56 130.6L616.25 105.6L616.25 55.6zM616.25 105.6L659.56 130.6L659.56 180.6L616.25 205.6L572.95 180.6L572.95 130.6zM659.56 180.6L702.86 205.6L702.86 255.6L659.56 280.6L616.25 255.6L616.25 205.6zM659.56 480.6L702.86 505.6L702.86 555.6L659.56 580.6L616.25 555.6L616.25 505.6zM746.16 30.6L789.47 55.6L789.47 105.6L746.16 130.6L702.86 105.6L702.86 55.6zM832.77 30.6L876.07 55.6L876.07 105.6L832.77 130.6L789.47 105.6L789.47 55.6zM832.77 330.6L876.07 355.6L876.07 405.6L832.77 430.6L789.47 405.6L789.47 355.6zM789.47 405.6L832.77 430.6L832.77 480.6L789.47 505.6L746.16 480.6L746.16 430.6zM832.77 480.6L876.07 505.6L876.07 555.6L832.77 580.6L789.47 555.6L789.47 505.6zM876.07 -44.4L919.37 -19.4L919.37 30.6L876.07 55.6L832.77 30.6L832.77 -19.4zM919.37 30.6L962.68 55.6L962.68 105.6L919.37 130.6L876.07 105.6L876.07 55.6zM876.07 105.6L919.37 130.6L919.37 180.6L876.07 205.6L832.77 180.6L832.77 130.6zM919.37 330.6L962.68 355.6L962.68 405.6L919.37 430.6L876.07 405.6L876.07 355.6zM919.37 480.6L962.68 505.6L962.68 555.6L919.37 580.6L876.07 555.6L876.07 505.6zM962.68 255.6L1005.98 280.6L1005.98 330.6L962.68 355.6L919.37 330.6L919.37 280.6zM1092.58 180.6L1135.88 205.6L1135.88 255.6L1092.58 280.6L1049.28 255.6L1049.28 205.6zM1049.28 255.6L1092.58 280.6L1092.58 330.6L1049.28 355.6L1005.98 330.6L1005.98 280.6zM1092.58 480.6L1135.88 505.6L1135.88 555.6L1092.58 580.6L1049.28 555.6L1049.28 505.6zM1179.19 30.6L1222.49 55.6L1222.49 105.6L1179.19 130.6L1135.88 105.6L1135.88 55.6zM1135.88 105.6L1179.19 130.6L1179.19 180.6L1135.88 205.6L1092.58 180.6L1092.58 130.6zM1179.19 330.6L1222.49 355.6L1222.49 405.6L1179.19 430.6L1135.88 405.6L1135.88 355.6zM1265.79 180.6L1309.1 205.6L1309.1 255.6L1265.79 280.6L1222.49 255.6L1222.49 205.6zM1265.79 330.6L1309.1 355.6L1309.1 405.6L1265.79 430.6L1222.49 405.6L1222.49 355.6zM1309.1 105.6L1352.4 130.6L1352.4 180.6L1309.1 205.6L1265.79 180.6L1265.79 130.6zM1352.4 180.6L1395.7 205.6L1395.7 255.6L1352.4 280.6L1309.1 255.6L1309.1 205.6zM1309.1 405.6L1352.4 430.6L1352.4 480.6L1309.1 505.6L1265.79 480.6L1265.79 430.6zM1439 180.6L1482.31 205.6L1482.31 255.6L1439 280.6L1395.7 255.6L1395.7 205.6zM1395.7 405.6L1439 430.6L1439 480.6L1395.7 505.6L1352.4 480.6L1352.4 430.6z" stroke="rgba(6, 80, 156, 0.93)" stroke-width="2"></path></g><defs><mask id="SvgjsMask1014"><rect width="1440" height="560" fill="#ffffff"></rect></mask></defs></svg>