<svg xmlns="http://www.w3.org/2000/svg" version="1.1" xmlns:xlink="http://www.w3.org/1999/xlink" xmlns:svgjs="http://svgjs.com/svgjs" width="1440" height="250" preserveAspectRatio="none" viewBox="0 0 1440 250"><g mask="url(&quot;#SvgjsMask2621&quot;)" fill="none"><rect width="1440" height="250" x="0" y="0" fill="url(#SvgjsLinearGradient2622)"></rect><path d="M -299.783274227338,137 C -242.18,127.2 -126.98,77.4 -11.783274227338012,88 C 103.42,98.6 161.02,186.8 276.216725772662,190 C 391.42,193.2 449.02,105.8 564.216725772662,104 C 679.42,102.2 737.02,178.6 852.216725772662,181 C 967.42,183.4 1025.02,124.8 1140.216725772662,116 C 1255.42,107.2 1368.26,148.6 1428.216725772662,137 C 1488.17,125.4 1437.64,73.8 1440,58" stroke="rgba(34, 180, 102, 1)" stroke-width="2"></path><path d="M -574.7228857184425,123 C -517.12,126.6 -401.92,142.6 -286.72288571844257,141 C -171.52,139.4 -113.92,105 1.2771142815574308,115 C 116.48,125 174.08,202.4 289.27711428155743,191 C 404.48,179.6 462.08,69.6 577.2771142815575,58 C 692.48,46.4 750.08,131.2 865.2771142815575,133 C 980.48,134.8 1038.33,68.4 1153.2771142815575,67 C 1268.22,65.6 1382.66,114.2 1440,126" stroke="rgba(12, 178, 167, 1)" stroke-width="2"></path><path d="M -221.86573128664656,62 C -164.27,77.6 -49.07,138.8 66.13426871335344,140 C 181.33,141.2 238.93,61.2 354.13426871335344,68 C 469.33,74.8 526.93,171.6 642.1342687133534,174 C 757.33,176.4 814.93,76.6 930.1342687133534,80 C 1045.33,83.4 1102.93,188.2 1218.1342687133533,191 C 1333.33,193.8 1461.76,100.4 1506.1342687133533,94 C 1550.51,87.6 1453.23,146 1440,159" stroke="rgba(73, 214, 205, 1)" stroke-width="2"></path><path d="M -206.96277253910665,173 C -149.36,159.2 -34.16,100.8 81.03722746089335,104 C 196.24,107.2 253.84,189.2 369.03722746089335,189 C 484.24,188.8 541.84,110.2 657.0372274608933,103 C 772.24,95.8 829.84,159 945.0372274608933,153 C 1060.24,147 1117.84,71.6 1233.0372274608933,73 C 1348.24,74.4 1479.64,156.2 1521.0372274608933,160 C 1562.43,163.8 1456.21,105.6 1440,92" stroke="rgba(20, 174, 120, 1)" stroke-width="2"></path><path d="M -286.6624461521106,162 C -229.06,149.4 -113.86,98.6 1.3375538478893887,99 C 116.54,99.4 174.14,167.6 289.3375538478894,164 C 404.54,160.4 462.14,82.2 577.3375538478894,81 C 692.54,79.8 750.14,151.4 865.3375538478894,158 C 980.54,164.6 1038.14,108.6 1153.3375538478895,114 C 1268.54,119.4 1384.01,191 1441.3375538478895,185 C 1498.67,179 1440.27,104.2 1440,84" stroke="rgba(31, 200, 189, 1)" stroke-width="2"></path><path d="M -320.6427398969142,182 C -263.04,162.4 -147.84,86.6 -32.6427398969142,84 C 82.56,81.4 140.16,161.4 255.3572601030858,169 C 370.56,176.6 428.16,119 543.3572601030858,122 C 658.56,125 716.16,190.2 831.3572601030858,184 C 946.56,177.8 1004.16,90.2 1119.3572601030858,91 C 1234.56,91.8 1343.23,183.8 1407.3572601030858,188 C 1471.49,192.2 1433.47,127.2 1440,112" stroke="rgba(31, 200, 189, 1)" stroke-width="2"></path><path d="M -128.97822952711806,91 C -71.38,104.2 43.82,151.4 159.02177047288194,157 C 274.22,162.6 331.82,122 447.02177047288194,119 C 562.22,116 619.82,150.8 735.0217704728819,142 C 850.22,133.2 907.82,65.8 1023.0217704728819,75 C 1138.22,84.2 1195.82,191.4 1311.021770472882,188 C 1426.22,184.6 1573.23,58.6 1599.021770472882,58 C 1624.82,57.4 1471.8,159.6 1440,185" stroke="rgba(20, 174, 120, 1)" stroke-width="2"></path><path d="M -125.07896827642475,192 C -67.48,174.4 47.72,113 162.92103172357525,104 C 278.12,95 335.72,152.6 450.92103172357525,147 C 566.12,141.4 623.72,73.8 738.9210317235752,76 C 854.12,78.2 911.72,152.4 1026.9210317235752,158 C 1142.12,163.6 1199.72,101.6 1314.9210317235752,104 C 1430.12,106.4 1577.91,171.6 1602.9210317235752,170 C 1627.94,168.4 1472.58,110.8 1440,96" stroke="rgba(12, 178, 167, 1)" stroke-width="2"></path></g><defs><mask id="SvgjsMask2621"><rect width="1440" height="250" fill="#ffffff"></rect></mask><linearGradient x1="0%" y1="50%" x2="100%" y2="50%" gradientUnits="userSpaceOnUse" id="SvgjsLinearGradient2622"><stop stop-color="rgba(73, 155, 156, 0.4)" offset="0"></stop><stop stop-color="rgba(245, 246, 246, 1)" offset="0"></stop></linearGradient></defs></svg>