<svg xmlns="http://www.w3.org/2000/svg" version="1.1" xmlns:xlink="http://www.w3.org/1999/xlink" xmlns:svgjs="http://svgjs.com/svgjs" width="1440" height="560" preserveAspectRatio="none" viewBox="0 0 1440 560"><g mask="url(&quot;#SvgjsMask1079&quot;)" fill="none"><path d="M -146.070365646094,411 C -88.47,364.2 26.73,193.2 141.929634353906,177 C 257.13,160.8 314.73,322.4 429.929634353906,330 C 545.13,337.6 602.73,210.2 717.9296343539061,215 C 833.13,219.8 890.73,367.6 1005.9296343539061,354 C 1121.13,340.4 1178.73,140.4 1293.929634353906,147 C 1409.13,153.6 1552.72,372.2 1581.929634353906,387 C 1611.14,401.8 1468.39,254.2 1440,221" stroke="rgba(34, 180, 102, 1)" stroke-width="2"></path><path d="M -455.88289907348445,388 C -398.28,341 -283.08,160 -167.88289907348445,153 C -52.68,146 4.92,340.6 120.11710092651555,353 C 235.32,365.4 292.92,225 408.11710092651555,215 C 523.32,205 580.92,299.6 696.1171009265156,303 C 811.32,306.4 868.92,221.8 984.1171009265156,232 C 1099.32,242.2 1180.94,367.8 1272.1171009265156,354 C 1363.29,340.2 1406.42,201.2 1440,163" stroke="rgba(34, 180, 102, 1)" stroke-width="2"></path><path d="M -377.44084145844613,300 C -319.84,289.4 -204.64,231.2 -89.44084145844613,247 C 25.76,262.8 83.36,393 198.55915854155387,379 C 313.76,365 371.36,192 486.55915854155387,177 C 601.76,162 659.36,293.4 774.5591585415539,304 C 889.76,314.6 947.36,206.8 1062.5591585415539,230 C 1177.76,253.2 1275.07,430.6 1350.5591585415539,420 C 1426.05,409.4 1422.11,225.6 1440,177" stroke="rgba(12, 178, 167, 1)" stroke-width="2"></path><path d="M -189.59559474347068,156 C -132,186.2 -16.8,308.2 98.40440525652932,307 C 213.6,305.8 271.2,153.2 386.40440525652934,150 C 501.6,146.8 559.2,277.6 674.4044052565293,291 C 789.6,304.4 847.2,194.8 962.4044052565293,217 C 1077.6,239.2 1135.2,399.8 1250.4044052565293,402 C 1365.6,404.2 1500.49,242.4 1538.4044052565293,228 C 1576.32,213.6 1459.68,309.6 1440,330" stroke="rgba(51, 121, 194, 0.58)" stroke-width="2"></path><path d="M -439.2717395736927,269 C -381.67,271.8 -266.47,294 -151.27173957369266,283 C -36.07,272 21.53,213.2 136.72826042630734,214 C 251.93,214.8 309.53,301.8 424.7282604263073,287 C 539.93,272.2 597.53,112.2 712.7282604263073,140 C 827.93,167.8 885.53,403.6 1000.7282604263073,426 C 1115.93,448.4 1200.87,257 1288.7282604263073,252 C 1376.58,247 1409.75,371.2 1440,401" stroke="rgba(51, 121, 194, 0.58)" stroke-width="2"></path><path d="M -190.81704660772965,407 C -133.22,376.6 -18.02,270.8 97.18295339227036,255 C 212.38,239.2 269.98,328.4 385.18295339227035,328 C 500.38,327.6 557.98,253.8 673.1829533922704,253 C 788.38,252.2 845.98,333 961.1829533922704,324 C 1076.38,315 1133.98,191 1249.1829533922703,208 C 1364.38,225 1499.02,396.4 1537.1829533922703,409 C 1575.35,421.6 1459.44,298.6 1440,271" stroke="rgba(51, 121, 194, 0.58)" stroke-width="2"></path><path d="M -432.37771257099666,176 C -374.78,215.6 -259.58,369.2 -144.37771257099666,374 C -29.18,378.8 28.42,197.8 143.62228742900334,200 C 258.82,202.2 316.42,387.6 431.62228742900334,385 C 546.82,382.4 604.42,195.2 719.6222874290033,187 C 834.82,178.8 892.42,339.6 1007.6222874290033,344 C 1122.82,348.4 1209.15,200.6 1295.6222874290033,209 C 1382.1,217.4 1411.12,350.6 1440,386" stroke="rgba(20, 174, 120, 1)" stroke-width="2"></path><path d="M -374.66657495547486,203 C -317.07,229.2 -201.87,333 -86.66657495547484,334 C 28.53,335 86.13,192.4 201.33342504452514,208 C 316.53,223.6 374.13,414.2 489.33342504452514,412 C 604.53,409.8 662.13,208 777.3334250445251,197 C 892.53,186 950.13,343.6 1065.3334250445253,357 C 1180.53,370.4 1278.4,260 1353.3334250445253,264 C 1428.27,268 1422.67,354.4 1440,377" stroke="rgba(12, 178, 167, 1)" stroke-width="2"></path></g><defs><mask id="SvgjsMask1079"><rect width="1440" height="560" fill="#ffffff"></rect></mask></defs></svg>